<?xml version="1.0" standalone="no"?>
<!DOCTYPE svg PUBLIC "-//W3C//DTD SVG 1.1//EN" "http://www.w3.org/Graphics/SVG/1.1/DTD/svg11.dtd">

<svg width="135" height="50" viewBox="0 0 135 50" preserveAspectRatio="none" 
  xmlns="http://www.w3.org/2000/svg"
  xmlns:xlink="http://www.w3.org/1999/xlink">


<polyline points="0.0, 27.103599091048796 0.8035714285714285, 21.146238010515386 1.607142857142857, 20.231917303583778 2.4107142857142856, 43.20533821931564 3.214285714285714, 14.973223004224803 4.017857142857142, 11.726948441324895 4.821428571428571, 16.904079478165187 5.625, 20.220224205794274 6.428571428571428, 12.897624163254878 7.232142857142857, 13.805745642621778 8.035714285714285, 13.171300897655675 8.839285714285715, 6.194595867006771 9.642857142857142, 15.119901917151646 10.446428571428571, 1.3482833583546703 11.25, 12.012366105197959 12.053571428571429, 31.6708496949051 12.857142857142856, 9.957530306199066 13.660714285714286, 2.2231203494879703 14.464285714285714, 23.230558615775106 15.267857142857142, 19.73709498576911 16.07142857142857, 49.52892130524509 16.875, 50.0 17.67857142857143, 45.82517012967932 18.482142857142858, 40.47683508559585 19.285714285714285, 40.193785475742935 20.089285714285715, 48.456789115526014 20.892857142857142, 38.310084599038284 21.696428571428573, 44.920687709983056 22.5, 33.507437490510824 23.303571428571427, 19.50167605007845 24.107142857142858, 14.700422167985694 24.91071428571429, 21.307185091512252 25.71428571428571, 36.679186921226076 26.517857142857142, 13.175442423126697 27.321428571428573, 16.896861196275918 28.125, 6.14262852739558 28.928571428571427, 18.732679560532397 29.732142857142858, 14.802140452171987 30.535714285714285, 28.283317236148896 31.339285714285715, 27.873389323655783 32.14285714285714, 21.02402011329024 32.94642857142857, 28.247666832457373 33.75, 24.246377943929684 34.55357142857142, 35.494811211249065 35.35714285714286, 23.63589702349313 36.160714285714285, 26.222365216087244 36.964285714285715, 27.9298480447364 37.767857142857146, 31.36100291317363 38.57142857142857, 33.14326439223443 39.375, 22.712749024984642 40.17857142857143, 32.96175349310999 40.982142857142854, 40.01702168041116 41.785714285714285, 26.997951732702774 42.589285714285715, 32.41264409480241 43.392857142857146, 25.910937281054714 44.19642857142857, 19.598478673313934 45.0, 21.748436891855217 45.80357142857143, 35.53749226840224 46.607142857142854, 29.385048360691172 47.410714285714285, 30.544243303178042 48.214285714285715, 45.73155238667704 49.01785714285714, 31.46156552547284 49.82142857142858, 33.99183303218229 50.625, 32.274783491443564 51.42857142857142, 42.3217329571677 52.23214285714286, 39.3929295117423 53.035714285714285, 23.70156042384919 53.839285714285715, 31.093283441518643 54.642857142857146, 25.02073880041049 55.44642857142857, 32.85365690015816 56.25, 40.564631415447074 57.05357142857143, 39.81676180826038 57.857142857142854, 31.498772790925837 58.660714285714285, 27.282508673474076 59.464285714285715, 24.438815258614095 60.267857142857146, 39.02110350371004 61.07142857142857, 18.633623087814083 61.875, 18.44300461062123 62.67857142857143, 18.970383153672827 63.482142857142854, 17.32418401089865 64.28571428571428, 11.767255771057009 65.08928571428572, 17.15612999939675 65.89285714285714, 6.373141867219278 66.69642857142857, 6.205789996858437 67.5, 10.530198674843893 68.30357142857143, 12.69300717706897 69.10714285714285, 2.7747407688422476 69.91071428571429, 0.0 70.71428571428572, 2.034769232565442 71.51785714285714, 6.502707081834854 72.32142857142857, 15.98834374917322 73.125, 0.06081461599001866 73.92857142857143, 11.520723967355336 74.73214285714286, 18.822054946404045 75.53571428571429, 12.072658777070329 76.33928571428571, 16.021986430485203 77.14285714285714, 4.1007375055906925 77.94642857142857, 12.729627051683284 78.75, 12.287300690664498 79.55357142857143, 12.944989463558102 80.35714285714286, 13.767865158380921 81.16071428571428, 6.908598138031322 81.96428571428571, 7.023902889769166 82.76785714285715, 4.543333080131736 83.57142857142857, 11.780572608737417 84.375, 3.2606002686862845 85.17857142857143, 4.2055187551556505 85.98214285714285, 7.957095769652237 86.78571428571429, 4.425720181189425 87.58928571428572, 1.9529687290676456 88.39285714285714, 10.487212863493863 89.19642857142857, 13.978555923740513 90.0, 5.3472920302658045 90.80357142857143, 6.818018716030899 91.60714285714286, 9.641986222450335 92.41071428571429, 14.295968545322236 93.21428571428571, 12.489014953000241 94.01785714285714, 15.900022777606948 94.82142857142857, 13.016165738803029 95.625, 10.056666268101996 96.42857142857143, 10.692180420964597 97.23214285714286, 5.166574921728768 98.03571428571428, 5.986146741391037 98.83928571428571, 10.48849495923486 99.64285714285715, 11.857343884355616 100.44642857142857, 20.82074469507063 101.25, 12.400941124221694 102.05357142857143, 20.816853672534005 102.85714285714285, 25.993082240246938 103.66071428571429, 27.227673349628578 104.46428571428572, 33.21774981841899 105.26785714285714, 33.131345220958956 106.07142857142857, 13.574700325393257 106.875, 21.165147288204807 107.67857142857143, 34.125763706805756 108.48214285714286, 45.17513426851128 109.28571428571429, 32.88339518969629 110.08928571428571, 40.68558825748371 110.89285714285714, 37.67986075179006 111.69642857142857, 40.612777051387404 112.5, 36.665454278005974 113.30357142857143, 39.913063410631295 114.10714285714286, 30.98334015730067 114.91071428571428, 36.80189643881964 115.71428571428571, 31.3344133944558 116.51785714285715, 41.10205782684413 117.32142857142857, 32.28881323130443 118.125, 41.06706040459615 118.92857142857143, 11.743654675291467 119.73214285714285, 27.565116776311722 120.53571428571429, 23.305521971819513 121.33928571428572, 32.69396547156534 122.14285714285714, 21.60157772035573 122.94642857142857, 28.388182094204943 123.75, 32.20317446501294 124.55357142857143, 15.578049186251864 125.35714285714286, 27.087315055129128 126.16071428571429, 12.824324467997364 126.96428571428571, 20.636342756262223 127.76785714285714, 25.008488627615854 128.57142857142856, 22.046816892206593 129.375, 21.747866232771194 130.17857142857144, 25.029862452235374 130.98214285714286, 20.679439032835422 131.78571428571428, 9.743790089173048 132.5892857142857, 5.69157928533554 133.39285714285714, 15.611292888141252 134.19642857142858, 9.363187089442366" fill="none" stroke="#32ca5b" stroke-width="1.25"/>

</svg>