<?xml version="1.0" standalone="no"?>
<!DOCTYPE svg PUBLIC "-//W3C//DTD SVG 1.1//EN" "http://www.w3.org/Graphics/SVG/1.1/DTD/svg11.dtd">

<svg width="135" height="50" viewBox="0 0 135 50" preserveAspectRatio="none" 
  xmlns="http://www.w3.org/2000/svg"
  xmlns:xlink="http://www.w3.org/1999/xlink">


<polyline points="0.0, 21.858869310643467 0.8035714285714285, 20.88697847075266 1.607142857142857, 25.22493053727174 2.4107142857142856, 30.941415786396842 3.214285714285714, 24.387568705349725 4.017857142857142, 21.367134794817538 4.821428571428571, 21.889078638133437 5.625, 30.67526482850751 6.428571428571428, 25.736502551783392 7.232142857142857, 29.13770465203262 8.035714285714285, 31.032839063124552 8.839285714285715, 27.538129042202847 9.642857142857142, 35.887725353372005 10.446428571428571, 7.170660200066968 11.25, 32.71480593768577 12.053571428571429, 9.876737054074257 12.857142857142856, 25.450041973657132 13.660714285714286, 25.093056911144508 14.464285714285714, 29.512307495844848 15.267857142857142, 29.327968874811383 16.07142857142857, 29.47952682031924 16.875, 32.660789557194875 17.67857142857143, 27.864781440399632 18.482142857142858, 27.487603650340226 19.285714285714285, 28.424658531358528 20.089285714285715, 12.943960330016276 20.892857142857142, 15.385982037533463 21.696428571428573, 27.350738417938636 22.5, 11.421413758155415 23.303571428571427, 20.785550287724337 24.107142857142858, 24.237659675308688 24.91071428571429, 18.11077337493772 25.71428571428571, 11.566277954874636 26.517857142857142, 32.13373757383371 27.321428571428573, 31.9020571328001 28.125, 20.57339372575936 28.928571428571427, 35.71083520510455 29.732142857142858, 25.631730919900487 30.535714285714285, 15.451645733440047 31.339285714285715, 19.86950172632731 32.14285714285714, 18.613109537267537 32.94642857142857, 12.37063148268787 33.75, 22.39176110527447 34.55357142857142, 22.104304738263863 35.35714285714286, 32.29564939225938 36.160714285714285, 30.47598443773894 36.964285714285715, 20.287319141541932 37.767857142857146, 29.25830983153213 38.57142857142857, 20.83071274120127 39.375, 21.73951731700799 40.17857142857143, 13.739184451516643 40.982142857142854, 14.709391060444213 41.785714285714285, 14.072849374900867 42.589285714285715, 22.418772625410366 43.392857142857146, 19.553316621968666 44.19642857142857, 19.979525971304383 45.0, 29.389977756028912 45.80357142857143, 15.708277067028122 46.607142857142854, 6.372969054290567 47.410714285714285, 24.345571208025195 48.214285714285715, 21.27404101146129 49.01785714285714, 19.89204854516624 49.82142857142858, 14.554755394324292 50.625, 27.36218785188889 51.42857142857142, 22.241788830532634 52.23214285714286, 16.64647773089604 53.035714285714285, 21.967479965348076 53.839285714285715, 21.073076775683603 54.642857142857146, 16.630986741301903 55.44642857142857, 18.128873739781447 56.25, 12.012140122920776 57.05357142857143, 23.083022149178426 57.857142857142854, 13.701829188760383 58.660714285714285, 18.06691681660974 59.464285714285715, 23.379588514248468 60.267857142857146, 28.645343474076597 61.07142857142857, 32.22592076051817 61.875, 19.4406781818685 62.67857142857143, 27.12851506367236 63.482142857142854, 50.0 64.28571428571428, 19.008467435133436 65.08928571428572, 32.195977627268654 65.89285714285714, 26.46329590883154 66.69642857142857, 18.74701663344462 67.5, 29.859402366212638 68.30357142857143, 18.152182545574966 69.10714285714285, 25.653799714242265 69.91071428571429, 35.76994699429414 70.71428571428572, 24.732064008170433 71.51785714285714, 23.46167824933661 72.32142857142857, 24.049609448696366 73.125, 29.33875909337653 73.92857142857143, 21.303244705133277 74.73214285714286, 23.83630803344448 75.53571428571429, 27.521751273106066 76.33928571428571, 35.91107676597564 77.14285714285714, 32.25606557475689 77.94642857142857, 25.355086259005166 78.75, 22.88383882918082 79.55357142857143, 26.536360069491106 80.35714285714286, 25.197690893360658 81.16071428571428, 19.25007975997908 81.96428571428571, 21.091607086388667 82.76785714285715, 11.73291867202333 83.57142857142857, 13.130552392990099 84.375, 9.337569641363274 85.17857142857143, 19.59925858862912 85.98214285714285, 39.657769318400355 86.78571428571429, 21.530446656573588 87.58928571428572, 19.628541282883628 88.39285714285714, 0.0 89.19642857142857, 24.16702753222247 90.0, 27.81691151405239 90.80357142857143, 29.04009846612802 91.60714285714286, 17.815210039587505 92.41071428571429, 26.747990280938833 93.21428571428571, 22.105683494391318 94.01785714285714, 24.398187461423255 94.82142857142857, 23.893626485074602 95.625, 20.025592829443514 96.42857142857143, 23.030998195519476 97.23214285714286, 20.69523975113385 98.03571428571428, 18.781852403003207 98.83928571428571, 17.419746459543877 99.64285714285715, 19.258944649541085 100.44642857142857, 17.690742018507276 101.25, 5.778676601611038 102.05357142857143, 8.632793553801923 102.85714285714285, 19.50368244642941 103.66071428571429, 18.640665859332138 104.46428571428572, 10.181587703150468 105.26785714285714, 25.088236968912103 106.07142857142857, 1.3473792641339446 106.875, 21.262849520927237 107.67857142857143, 23.76438935006171 108.48214285714286, 13.38434617613165 109.28571428571429, 22.07385615893907 110.08928571428571, 19.840921175215808 110.89285714285714, 18.618609140500496 111.69642857142857, 20.867288047556993 112.5, 22.032281240913928 113.30357142857143, 18.147078366030904 114.10714285714286, 16.212012233079363 114.91071428571428, 18.402271035036165 115.71428571428571, 18.24227064150154 116.51785714285715, 19.2582749839823 117.32142857142857, 19.230560513443937 118.125, 24.19342786572884 118.92857142857143, 21.39342132993679 119.73214285714285, 21.789086739063418 120.53571428571429, 21.441547367865706 121.33928571428572, 18.37697541233535 122.14285714285714, 12.200879786459437 122.94642857142857, 13.66777976327368 123.75, 14.072126710186058 124.55357142857143, 20.567865344880932 125.35714285714286, 14.746061614171785 126.16071428571429, 15.547107973675963 126.96428571428571, 19.22696374697836 127.76785714285714, 18.969474247790412 128.57142857142856, 17.416940573749265 129.375, 19.468689533416605 130.17857142857144, 18.671038851368333 130.98214285714286, 19.925635166775717 131.78571428571428, 24.085184510104817 132.5892857142857, 16.050800874356767 133.39285714285714, 15.140280281619045 134.19642857142858, 22.621865678273544" fill="none" stroke="#ff3a33" stroke-width="1.25"/>

</svg>